<!-- Generated by IcoMoon.io -->
<svg version="1.1" xmlns="http://www.w3.org/2000/svg" width="16" height="16" viewBox="0 0 16 16">
<title>check-02</title>
<path d="M14.435 2.141c-0.195-0.197-0.513-0.197-0.707 0l-7.454 7.419c-0.195 0.198-0.514 0.198-0.708 0l-3.266-3.326c-0.097-0.099-0.223-0.147-0.351-0.148-0.129-0.001-0.259 0.048-0.357 0.148l-1.443 1.297c-0.096 0.099-0.148 0.222-0.148 0.351s0.052 0.265 0.149 0.363l3.293 3.456c0.195 0.197 0.514 0.517 0.708 0.713l1.416 1.427c0.195 0.195 0.513 0.195 0.708 0l9.577-9.56c0.195-0.196 0.195-0.518 0-0.714l-1.417-1.427z"></path>
</svg>
