<!-- Generated by IcoMoon.io -->
<svg version="1.1" xmlns="http://www.w3.org/2000/svg" width="16" height="16" viewBox="0 0 16 16">
<title>check-01</title>
<path fill="#27ae60" d="M14.667 8.667c0 3.682-2.985 6.667-6.667 6.667s-6.667-2.985-6.667-6.667c0-3.682 2.985-6.667 6.667-6.667s6.667 2.985 6.667 6.667z"></path>
<path fill="#2ecc71" d="M14.667 8c0 3.682-2.985 6.667-6.667 6.667s-6.667-2.985-6.667-6.667c0-3.682 2.985-6.667 6.667-6.667s6.667 2.985 6.667 6.667z"></path>
<path fill="#27ae60" d="M10.667 6l-4 4-1.667-1.667-1.417 1.4 3 3 0.083 0.067 5.417-5.4-1.417-1.4z"></path>
<path fill="#ecf0f1" d="M10.667 5.333l-4 4-1.667-1.667-1.417 1.4 3 3 0.083 0.067 5.417-5.4-1.417-1.4z"></path>
</svg>
