<!-- Generated by IcoMoon.io -->
<svg version="1.1" xmlns="http://www.w3.org/2000/svg" width="16" height="16" viewBox="0 0 16 16">
<title>check-03</title>
<path d="M10.658 5.811l-3.847 3.847-1.46-1.46c-0.098-0.098-0.256-0.098-0.354-0s-0.098 0.256 0 0.354l1.814 1.814 4.201-4.201c0.098-0.097 0.098-0.256 0-0.353s-0.256-0.098-0.354 0zM8.004 1.734c-3.455 0-6.266 2.811-6.266 6.266s2.811 6.266 6.266 6.266h0.001c3.455 0 6.265-2.811 6.265-6.266s-2.811-6.266-6.266-6.266zM8.005 13.766h-0.001c-3.179 0-5.766-2.587-5.766-5.766s2.587-5.766 5.766-5.766 5.766 2.587 5.766 5.766c0 3.18-2.586 5.766-5.765 5.766z"></path>
</svg>
