<!-- Generated by IcoMoon.io -->
<svg version="1.1" xmlns="http://www.w3.org/2000/svg" width="16" height="16" viewBox="0 0 16 16">
<title>computer</title>
<path d="M15 14h-14c-0.15 0-0.35-0.1-0.45-0.25s-0.1-0.35 0-0.5l1-1.5c0.1-0.15 0.25-0.25 0.45-0.25h12c0.2 0 0.35 0.1 0.45 0.3l1 1.5c0.1 0.15 0.050 0.35 0 0.5-0.1 0.1-0.3 0.2-0.45 0.2z"></path>
<path d="M13.5 2.5h-11c-0.3 0-0.5 0.2-0.5 0.5v7c0 0.3 0.2 0.5 0.5 0.5h11c0.3 0 0.5-0.2 0.5-0.5v-7c0-0.3-0.2-0.5-0.5-0.5zM5.85 7.65c0.2 0.2 0.2 0.5 0 0.7-0.1 0.1-0.2 0.15-0.35 0.15s-0.25-0.050-0.35-0.15l-1.5-1.5c-0.2-0.2-0.2-0.5 0-0.7l1.5-1.5c0.2-0.2 0.5-0.2 0.7 0s0.2 0.5 0 0.7l-1.15 1.15 1.15 1.15zM9.45 4.7l-2 4c-0.1 0.2-0.25 0.3-0.45 0.3-0.1 0-0.15 0-0.2-0.050-0.25-0.1-0.35-0.4-0.2-0.65l2-4c0.1-0.25 0.4-0.35 0.65-0.2 0.2 0.1 0.3 0.4 0.2 0.6zM12.35 6.85l-1.5 1.5c-0.1 0.1-0.2 0.15-0.35 0.15s-0.25-0.050-0.35-0.15c-0.2-0.2-0.2-0.5 0-0.7l1.15-1.15-1.15-1.15c-0.2-0.2-0.2-0.5 0-0.7s0.5-0.2 0.7 0l1.5 1.5c0.2 0.2 0.2 0.5 0 0.7z"></path>
</svg>
