<!-- Generated by IcoMoon.io -->
<svg version="1.1" xmlns="http://www.w3.org/2000/svg" width="16" height="16" viewBox="0 0 16 16">
<title>linkedin</title>
<path fill="#007bb5" d="M16 15c0 0.552-0.448 1-1 1h-14c-0.552 0-1-0.448-1-1v-14c0-0.552 0.448-1 1-1h14c0.552 0 1 0.448 1 1v14z"></path>
<path fill="#fff" d="M3.5 5.5h2v7h-2v-7z"></path>
<path fill="#fff" d="M10.249 5.5c-1.396 0-1.636 0.509-1.749 1v-1h-2v7h2v-4c0-0.649 0.351-1 1-1 0.633 0 1 0.344 1 1v4h2v-3.5c0-2-0.261-3.5-2.251-3.5z"></path>
<path fill="#fff" d="M5.5 4c0 0.552-0.448 1-1 1s-1-0.448-1-1c0-0.552 0.448-1 1-1s1 0.448 1 1z"></path>
</svg>
