<!-- Generated by IcoMoon.io -->
<svg version="1.1" xmlns="http://www.w3.org/2000/svg" width="16" height="16" viewBox="0 0 16 16">
<title>map</title>
<path d="M8.191 11.813c-0 0-0 0-0 0-0.084 0-0.163-0.022-0.231-0.061l0.002 0.001c-2.217-1.258-3.688-3.601-3.691-6.287v-0q0-0.078 0.002-0.156c0.025-1.172 0.463-2.16 1.266-2.856 0.708-0.614 1.65-0.953 2.652-0.953s1.944 0.338 2.652 0.952c0.803 0.697 1.241 1.684 1.266 2.856v0q0.002 0.078 0.002 0.156c-0.003 2.688-1.475 5.031-3.656 6.269l-0.036 0.019c-0.066 0.038-0.145 0.060-0.229 0.060h-0zM8.191 2.438c-0.777 0-1.5 0.257-2.038 0.723-0.598 0.518-0.924 1.268-0.943 2.168 0 0.045 0 0.091 0 0.137 0.002 2.245 1.183 4.213 2.956 5.32l0.026 0.015c1.8-1.123 2.98-3.091 2.982-5.335v-0c0-0.046 0-0.091-0.002-0.137v0c-0.019-0.9-0.345-1.65-0.943-2.168-0.539-0.466-1.262-0.723-2.039-0.723z"></path>
<path d="M8.201 7.731c-1.245 0-2.254-1.009-2.254-2.254s1.009-2.254 2.254-2.254c1.245 0 2.254 1.009 2.254 2.254v0c-0.001 1.244-1.010 2.253-2.254 2.254h-0zM8.201 4.161c-0.727 0-1.317 0.589-1.317 1.317s0.589 1.317 1.317 1.317c0.727 0 1.317-0.589 1.317-1.317 0-0 0-0 0-0v0c-0.001-0.727-0.59-1.316-1.316-1.316h-0z"></path>
<path d="M8.191 14.063c-1.265 0-2.461-0.252-3.368-0.709-1.010-0.51-1.566-1.223-1.566-2.010 0-1.044 0.977-1.946 2.612-2.411 0.036-0.010 0.077-0.015 0.119-0.015 0.259 0 0.469 0.21 0.469 0.469 0 0.21-0.138 0.388-0.329 0.448l-0.003 0.001c-1.173 0.334-1.932 0.927-1.932 1.509 0 0.844 1.641 1.781 3.997 1.781s3.998-0.938 3.998-1.781c0-0.583-0.758-1.175-1.932-1.509-0.198-0.058-0.341-0.238-0.341-0.451 0-0.259 0.21-0.469 0.469-0.469 0.046 0 0.090 0.007 0.132 0.019l-0.003-0.001c1.636 0.466 2.612 1.367 2.612 2.411 0 0.787-0.556 1.5-1.566 2.010-0.908 0.457-2.104 0.709-3.368 0.709z"></path>
</svg>
