<!-- Generated by IcoMoon.io -->
<svg version="1.1" xmlns="http://www.w3.org/2000/svg" width="16" height="16" viewBox="0 0 16 16">
<title>student</title>
<path d="M0 5.74l7.77-3.815 7.947 3.779-7.912 4.309z"></path>
<path d="M15.276 5.74c0.127 0 0.23 0.103 0.23 0.23v2.684c0 0.127-0.103 0.23-0.23 0.23s-0.23-0.103-0.23-0.23v-2.684c0-0.127 0.103-0.23 0.23-0.23z"></path>
<path d="M15.982 9.439c0 0.385-0.312 0.698-0.698 0.698s-0.698-0.312-0.698-0.698c0-0.385 0.312-0.698 0.698-0.698s0.698 0.312 0.698 0.698z"></path>
<path d="M14.87 10.72c0.117 0.088 0.264 0.141 0.424 0.141s0.307-0.053 0.426-0.143l-0.002 0.001q0.035 1.678 0.071 3.355h-1.060q0.071-1.678 0.141-3.355z"></path>
<path d="M3.461 8.494l4.26 2.333 4.323-2.333v2.472c-0.194 0.239-1.704 2.040-4.274 2.049-2.591 0.008-4.118-1.813-4.309-2.049z"></path>
</svg>
