<!-- Generated by IcoMoon.io -->
<svg version="1.1" xmlns="http://www.w3.org/2000/svg" width="16" height="16" viewBox="0 0 16 16">
<title>whatsapp</title>
<path d="M13.089 3.024c-1.313-1.314-3.058-2.038-4.918-2.039-3.832 0-6.951 3.119-6.953 6.952-0.001 1.225 0.32 2.421 0.928 3.476l-0.986 3.603 3.686-0.967c1.015 0.554 2.159 0.846 3.322 0.846h0.003c0 0-0 0 0 0 3.832 0 6.951-3.119 6.953-6.952 0.001-1.858-0.722-3.605-2.034-4.919zM8.171 13.721h-0.002c-1.037-0-2.054-0.279-2.941-0.805l-0.211-0.125-2.187 0.574 0.584-2.132-0.137-0.219c-0.578-0.92-0.884-1.983-0.883-3.075 0.001-3.186 2.594-5.778 5.781-5.778 1.543 0 2.994 0.602 4.085 1.695s1.692 2.544 1.691 4.088c-0.001 3.186-2.594 5.779-5.779 5.779z"></path>
<path d="M11.341 9.393c-0.174-0.087-1.028-0.507-1.187-0.565s-0.275-0.087-0.391 0.087c-0.116 0.174-0.449 0.565-0.55 0.681s-0.203 0.13-0.376 0.043c-0.174-0.087-0.733-0.27-1.397-0.862-0.516-0.461-0.865-1.030-0.966-1.203s-0.011-0.268 0.076-0.355c0.078-0.078 0.174-0.203 0.261-0.304s0.116-0.174 0.174-0.29c0.058-0.116 0.029-0.217-0.014-0.304s-0.391-0.942-0.536-1.29c-0.141-0.339-0.284-0.293-0.391-0.298-0.101-0.005-0.217-0.006-0.333-0.006s-0.304 0.043-0.463 0.217c-0.159 0.174-0.608 0.594-0.608 1.449s0.623 1.681 0.709 1.797c0.087 0.116 1.225 1.871 2.968 2.623 0.414 0.179 0.738 0.286 0.99 0.366 0.416 0.132 0.795 0.114 1.094 0.069 0.334-0.050 1.028-0.42 1.173-0.826s0.145-0.754 0.101-0.826c-0.043-0.072-0.159-0.116-0.333-0.203z"></path>
</svg>
